<svg width="450" height="300" viewBox="0 0 450 300" fill="none" xmlns="http://www.w3.org/2000/svg">
<rect width="450" height="300" fill="#191919"/>
<path d="M135.25 74.5H92.25C89.3989 74.5 86.6646 75.6326 84.6486 77.6486C82.6326 79.6646 81.5 82.3989 81.5 85.25V171.25C81.5 174.101 82.6326 176.835 84.6486 178.851C86.6646 180.867 89.3989 182 92.25 182H156.75C159.601 182 162.335 180.867 164.351 178.851C166.367 176.835 167.5 174.101 167.5 171.25V106.75L135.25 74.5ZM144.925 171.25H135.25L124.5 152.975L113.75 171.25H104.075L119.663 147.062L104.075 122.875H113.75L124.5 141.15L135.25 122.875H144.925L129.338 147.062L144.925 171.25ZM129.875 112.125V82.5625L159.438 112.125H129.875Z" fill="#3B3B3B"/>
<g clip-path="url(#clip0)">
<path d="M281.75 78.75H292.75V89.75H281.75V117.25C281.75 120.167 280.591 122.965 278.528 125.028C276.465 127.091 273.667 128.25 270.75 128.25C273.667 128.25 276.465 129.409 278.528 131.472C280.591 133.535 281.75 136.333 281.75 139.25V166.75H292.75V177.75H281.75C275.865 176.265 270.75 172.8 270.75 166.75V144.75C270.75 141.833 269.591 139.035 267.528 136.972C265.465 134.909 262.667 133.75 259.75 133.75H254.25V122.75H259.75C262.667 122.75 265.465 121.591 267.528 119.528C269.591 117.465 270.75 114.667 270.75 111.75V89.75C270.75 86.8326 271.909 84.0347 273.972 81.9718C276.035 79.9089 278.833 78.75 281.75 78.75V78.75ZM358.75 78.75C361.667 78.75 364.465 79.9089 366.528 81.9718C368.591 84.0347 369.75 86.8326 369.75 89.75V111.75C369.75 114.667 370.909 117.465 372.972 119.528C375.035 121.591 377.833 122.75 380.75 122.75H386.25V133.75H380.75C377.833 133.75 375.035 134.909 372.972 136.972C370.909 139.035 369.75 141.833 369.75 144.75V166.75C369.75 169.667 368.591 172.465 366.528 174.528C364.465 176.591 361.667 177.75 358.75 177.75H347.75V166.75H358.75V139.25C358.75 136.333 359.909 133.535 361.972 131.472C364.035 129.409 366.833 128.25 369.75 128.25C366.833 128.25 364.035 127.091 361.972 125.028C359.909 122.965 358.75 120.167 358.75 117.25V89.75H347.75V78.75H358.75ZM320.25 144.75C321.709 144.75 323.108 145.329 324.139 146.361C325.171 147.392 325.75 148.791 325.75 150.25C325.75 151.709 325.171 153.108 324.139 154.139C323.108 155.171 321.709 155.75 320.25 155.75C318.791 155.75 317.392 155.171 316.361 154.139C315.329 153.108 314.75 151.709 314.75 150.25C314.75 148.791 315.329 147.392 316.361 146.361C317.392 145.329 318.791 144.75 320.25 144.75V144.75ZM298.25 144.75C299.709 144.75 301.108 145.329 302.139 146.361C303.171 147.392 303.75 148.791 303.75 150.25C303.75 151.709 303.171 153.108 302.139 154.139C301.108 155.171 299.709 155.75 298.25 155.75C296.791 155.75 295.392 155.171 294.361 154.139C293.329 153.108 292.75 151.709 292.75 150.25C292.75 148.791 293.329 147.392 294.361 146.361C295.392 145.329 296.791 144.75 298.25 144.75ZM342.25 144.75C343.709 144.75 345.108 145.329 346.139 146.361C347.171 147.392 347.75 148.791 347.75 150.25C347.75 151.709 347.171 153.108 346.139 154.139C345.108 155.171 343.709 155.75 342.25 155.75C340.791 155.75 339.392 155.171 338.361 154.139C337.329 153.108 336.75 151.709 336.75 150.25C336.75 148.791 337.329 147.392 338.361 146.361C339.392 145.329 340.791 144.75 342.25 144.75V144.75Z" fill="#3B3B3B"/>
</g>
<defs>
<clipPath id="clip0">
<rect width="132" height="132" fill="white" transform="translate(254.25 62.25)"/>
</clipPath>
</defs>
</svg>
