<svg width="452" height="300" viewBox="0 0 452 300" fill="none" xmlns="http://www.w3.org/2000/svg">
<rect width="452" height="300" fill="#191919"/>
<path d="M150.415 117C150.415 128.62 140.994 138 129.322 138C117.65 138 108.229 128.62 108.229 117C108.229 105.38 117.65 96 129.322 96C140.994 96 150.415 105.38 150.415 117ZM171.509 194H87.1353V180C87.1353 164.53 106.049 152 129.322 152C152.595 152 171.509 164.53 171.509 180V194ZM122.291 117C122.291 120.85 125.455 124 129.322 124C133.189 124 136.353 120.85 136.353 117C136.353 113.15 133.189 110 129.322 110C125.455 110 122.291 113.15 122.291 117ZM101.197 180H157.446C157.446 172.3 144.861 166 129.322 166C113.783 166 101.197 172.3 101.197 180ZM227.757 138V152H164.477V138H227.757ZM227.757 110V124H164.477V110H227.757ZM227.757 82V96H164.477V82H227.757Z" fill="#3B3B3B"/>
<path d="M344.273 138H328.202M344.273 122V138V122ZM344.273 138V154V138ZM344.273 138H360.344H344.273Z" stroke="#3B3B3B" stroke-width="4.16667" stroke-linecap="round"/>
<path d="M344.273 178C366.463 178 384.451 160.091 384.451 138C384.451 115.909 366.463 98 344.273 98C322.084 98 304.095 115.909 304.095 138C304.095 160.091 322.084 178 344.273 178Z" stroke="#3B3B3B" stroke-width="4.16667"/>
</svg>
