<svg width="452" height="300" viewBox="0 0 452 300" fill="none" xmlns="http://www.w3.org/2000/svg">
<rect width="452" height="300" fill="#191919"/>
<path d="M280.491 63C280.491 64.04 280.491 65.08 280.813 66.12L254.697 79C251.906 76.15 248.324 74.194 244.41 73.3822C240.496 72.5705 236.428 72.94 232.726 74.4435C229.024 75.9469 225.857 78.5159 223.63 81.8217C221.403 85.1274 220.217 89.0196 220.225 93C220.225 94.04 220.225 95 220.546 96.12L194.431 109.16C190.815 105.32 185.752 103 180.047 103C174.719 103 169.609 105.107 165.842 108.858C162.075 112.609 159.958 117.696 159.958 123C159.958 128.304 162.075 133.391 165.842 137.142C169.609 140.893 174.719 143 180.047 143C185.752 143 190.815 140.68 194.431 136.92L220.546 149.88C220.225 151 220.225 151.96 220.225 153C220.217 156.98 221.403 160.873 223.63 164.178C225.857 167.484 229.024 170.053 232.726 171.557C236.428 173.06 240.496 173.429 244.41 172.618C248.324 171.806 251.906 169.85 254.697 167L280.813 179.88C280.491 180.92 280.491 181.96 280.491 183C280.491 188.304 282.608 193.391 286.375 197.142C290.143 200.893 295.252 203 300.58 203C305.908 203 311.018 200.893 314.785 197.142C318.553 193.391 320.669 188.304 320.669 183C320.669 180.374 320.15 177.773 319.14 175.346C318.13 172.92 316.651 170.715 314.785 168.858C312.92 167.001 310.705 165.528 308.268 164.522C305.831 163.517 303.218 163 300.58 163C294.955 163 289.813 165.32 286.197 169.08L260.081 156.12C260.402 155 260.402 154.04 260.402 153C260.402 151.96 260.402 151 260.081 149.88L286.197 136.84C289.813 140.6 294.955 143 300.58 143C305.908 143 311.018 140.893 314.785 137.142C318.553 133.391 320.669 128.304 320.669 123C320.669 117.696 318.553 112.609 314.785 108.858C311.018 105.107 305.908 103 300.58 103C295.252 103 290.143 105.107 286.375 108.858C282.608 112.609 280.491 117.696 280.491 123C280.491 124.04 280.491 125.08 280.813 126.12L254.697 139C251.081 135.32 246.019 133 240.314 133C234.608 133 229.546 135.32 225.93 139L199.814 126.12C200.136 125.08 200.136 124.04 200.136 123C200.136 121.96 200.136 120.92 199.814 119.88L225.93 107C229.546 110.6 234.689 113 240.314 113C245.641 113 250.751 110.893 254.519 107.142C258.286 103.391 260.402 98.3043 260.402 93C260.402 91.96 260.402 91 260.081 89.88L286.197 76.84C289.813 80.6 294.955 83 300.58 83C305.908 83 311.018 80.8929 314.785 77.1421C318.553 73.3914 320.669 68.3043 320.669 63C320.669 57.6957 318.553 52.6086 314.785 48.8579C311.018 45.1071 305.908 43 300.58 43C295.252 43 290.143 45.1071 286.375 48.8579C282.608 52.6086 280.491 57.6957 280.491 63Z" fill="#3B3B3B"/>
</svg>
